<svg xmlns="http://www.w3.org/2000/svg" width="584" height="258" viewBox="0 0 584 258">
    <g fill="none" fill-rule="evenodd">
        <g fill="#FD0000">
            <g>
                <path d="M1527.132 227.983l-86.62 199.324c-2.84 6.539-9.597 10.766-17.212 10.766h-199.138c-7.984 0-13.299-8.651-9.988-16.267l18.118-41.742h65.037l-6.404 13.909h98.054l23.292-52.607h-103.266l17.464-39.647h103.282l20.166-46.299h-163.543l14.184-32.409c2.922-6.728 9.874-11.076 17.707-11.077l197.154-.007c4.264 0 8.077 1.876 10.464 5.147 2.385 3.272 2.84 7.247 1.25 10.909zM1246.22 364.137l40.322-92.79h139.066l-6.293 14.445h-103.238l-31.494 71.5h103.214l-9.189 20.753h-62.81l6.407-13.908h-75.985zm-44.82 63.17c-2.844 6.539-9.6 10.766-17.214 10.766H991.524c-5.259 0-9.96-2.313-12.904-6.346-2.94-4.034-3.503-8.937-1.541-13.453l16.579-38.2 65.258-.005-6.036 13.903 97.927.013 22.882-52.616-150.235-.017c-6.064 0-10.098-6.57-7.586-12.352l46.123-106.13c2.888-6.642 9.749-10.937 17.482-10.937h197.005c4.224 0 8 1.858 10.363 5.097 2.365 3.241 2.817 7.18 1.239 10.807l-86.68 199.47zm337.356-219.617c-5.42-7.429-13.924-11.69-23.335-11.69l-197.156.007c-8.2.002-15.972 2.667-22.176 7.554-5.256-4.892-12.118-7.555-19.609-7.555l-197.007.003c-14.083 0-26.679 8.052-32.091 20.516l-46.125 106.128c-3.368 7.754-2.618 16.595 2.01 23.65 4.506 6.872 12.055 10.975 20.188 10.977l125.938.013-9.028 20.765-63.205-.01 6.038-13.909-99.992.008-20.743 47.787c-4.203 9.687-2.975 20.595 3.288 29.177 5.974 8.191 15.366 12.889 25.773 12.889h192.664c7.996 0 15.593-2.578 21.676-7.314 4.94 4.679 11.47 7.314 18.3 7.314H1423.3c13.964 0 26.454-7.987 31.825-20.347l86.62-199.323c3.842-8.843 2.726-18.803-2.99-26.64zm-415.283 63.656l63.223-.002-8.523 19.663h-63.223l8.523-19.66zm-32.932 35.841h97.947l22.474-51.77-97.951.001-22.47 51.769z" transform="translate(-975 -4694) translate(15 4498)"/>
            </g>
        </g>
    </g>
</svg>
