<?xml version="1.0" encoding="utf-8"?>
<!-- Generator: Adobe Illustrator 28.4.1, SVG Export Plug-In . SVG Version: 6.00 Build 0)  -->
<svg version="1.0" id="katman_1" xmlns="http://www.w3.org/2000/svg" xmlns:xlink="http://www.w3.org/1999/xlink" x="0px" y="0px"
	 viewBox="0 0 841.89 595.28" style="enable-background:new 0 0 841.89 595.28;" xml:space="preserve">
<style type="text/css">
	.st0{fill:#191823;}
</style>
<path class="st0" d="M624.42,79.41c-61.2-29.82-129.85-44.72-203.6-44.72s-142.41,14.91-203.6,44.72
	c-20.01,9.81-44.33,31.38-44.33,78.85c0,7.45,0.39,15.3,1.57,23.15l0.39,3.53c2.75,21.58,11.77,87.88,45.11,157.31
	c33.35,69.83,64.34,114.55,114.16,164.37c0.39,0.39,37.66,37.27,56.1,46.68c13.34,6.67,26.28,7.06,29.82,6.67
	c3.53,0,16.48-0.4,29.81-6.67c18.44-9.41,55.71-46.29,56.1-46.68c49.82-49.82,80.81-94.54,114.16-164.37
	c33.35-69.44,41.98-135.74,45.11-157.31l0.4-3.53C675.41,118.64,648.35,91.57,624.42,79.41z M636.18,250.84
	c-6.67,25.11-16.08,54.53-30.6,84.34c-32.56,67.87-62.38,111.02-111.02,159.67c-9.42,9.42-38.84,36.88-51.78,43.54
	c-10.59,5.1-21.58,5.1-21.97,5.1s-11.38,0.4-21.97-5.1c-12.95-6.28-42.37-34.13-51.78-43.54c-29.03-29.03-51.78-56.49-72.18-88.27
	c-6.28-10.98-14.52-30.21,9.02-55.71c30.99-32.56,94.54-67.48,226.36-88.27c56.1-8.63,96.9-11.77,125.93-12.55V250.84z
	 M649.52,179.05l-0.39,3.92c-1.18,8.63-3.53,25.11-7.85,46.29c-24.71-0.39-106.31-0.78-220.47,5.49
	c-120.83,6.28-189.09,25.11-206.35,47.08c-14.91-45.11-20.01-83.17-21.97-98.47l-0.39-3.92c-1.18-7.45-1.57-14.52-1.57-20.79
	c0-30.6,11.38-52.18,34.52-63.16c64.73-31.38,132.99-43.15,195.76-43.15c62.77,0,131.42,11.77,195.76,43.15
	C644.42,108.44,655.41,137.07,649.52,179.05z"/>
<path class="st0" d="M275.27,127.66h-31.38l-14.12,67.08h32.95c20.79,0,36.48-12.55,40.8-32.56
	C307.83,142.17,302.34,127.66,275.27,127.66z M276.05,161.39c-1.18,6.67-2.75,11.38-5.1,14.12c-2.35,2.75-5.1,4.32-9.42,4.32h-2.75
	l7.85-36.48h2.75c4.31,0,6.28,1.57,7.45,4.32C278.01,150.02,277.62,154.73,276.05,161.39z"/>
<path class="st0" d="M334.5,196.7c-20.4,0-30.21-8.24-26.68-24.32l9.42-44.72h26.68l-9.42,43.55c-1.18,5.1,0.78,7.45,3.92,7.45
	s5.88-1.96,6.67-7.45l9.42-43.55h26.68l-9.42,44.72C368.24,188.46,354.9,196.7,334.5,196.7z"/>
<path class="st0" d="M407.08,196.7c-23.54,0-31.38-14.52-26.68-35.7c3.92-20.79,19.22-34.91,41.98-34.91
	c16.87,0,29.81,7.06,25.5,26.68h-24.32c1.18-7.45-1.18-9.02-4.32-9.02c-7.06,0-9.02,7.06-11.38,17.65
	c-1.96,10.2-3.14,17.65,3.53,17.65c3.53,0,6.28-1.96,8.24-9.02h24.71C440.43,188.46,423.95,196.7,407.08,196.7z"/>
<path class="st0" d="M549.49,194.74H523.2l10.2-49.04h-16.48l3.92-18.05h59.63l-3.92,18.05h-16.48L549.49,194.74z"/>
<path class="st0" d="M597.74,194.74h-26.68l14.12-67.08h26.68L597.74,194.74z"/>
<path class="st0" d="M507.9,127.66h-34.52l-35.7,67.08h25.5l5.1-10.59h19.22l0.39,10.59h27.46L507.9,127.66z M486.72,167.67h-11.38
	l11.38-25.11V167.67z"/>
</svg>
